<svg width="512" height="512" viewBox="0 0 512 512" fill="none" xmlns="http://www.w3.org/2000/svg">
  <!-- Background -->
  <rect width="512" height="512" rx="128" fill="url(#paint0_linear)" />
  
  <!-- Bell Icon -->
  <path d="M256 96C220.654 96 192 124.654 192 160V198.261C192 233.809 180.338 268.598 159.258 297.227L153.613 304.887C148.385 312.193 146.576 321.609 148.738 330.51C150.9 339.412 156.766 346.756 164.861 350.191C185.77 358.852 207.812 363.744 230.232 364.789C234.662 382.01 249.896 395.733 269.189 396.961C288.482 398.189 306.459 387.016 314.088 370.732C336.119 368.684 357.658 362.789 377.803 353.338C385.576 349.721 391.184 342.377 393.244 333.57C395.303 324.764 393.541 315.488 388.486 308.262L382.742 300.418C361.662 271.789 350 236.809 350 201.072V160C350 124.654 321.346 96 286 96H256Z" fill="white"/>
  
  <!-- Notification Dot -->
  <circle cx="360" cy="140" r="32" fill="#EF4444" />
  
  <!-- Gradient Definition -->
  <defs>
    <linearGradient id="paint0_linear" x1="0" y1="0" x2="512" y2="512" gradientUnits="userSpaceOnUse">
      <stop stop-color="#3B82F6" />
      <stop offset="1" stop-color="#4F46E5" />
    </linearGradient>
  </defs>
</svg> 